/* XPM */
static char * celtx48_xpm[] = {
"48 48 512 2",
"  	c None",
". 	c #9BA3AB",
"+ 	c #97A0A7",
"@ 	c #DADCE1",
"# 	c #ABB2B9",
"$ 	c #8D95A0",
"% 	c #89919C",
"& 	c #A8B0B5",
"* 	c #FFFFFF",
"= 	c #B0B6BC",
"- 	c #89919B",
"; 	c #949CA7",
"> 	c #848C96",
", 	c #E7E8EC",
"' 	c #BEC2C6",
") 	c #889099",
"! 	c #858E96",
"~ 	c #7E8891",
"{ 	c #DBDDE0",
"] 	c #CED0D5",
"^ 	c #808A93",
"/ 	c #7C848C",
"( 	c #C3C8CB",
"_ 	c #DFE1E5",
": 	c #79828C",
"< 	c #8F969F",
"[ 	c #78818A",
"} 	c #AEB4B8",
"| 	c #A0A8AD",
"1 	c #767C84",
"2 	c #A0A6AC",
"3 	c #C6CACE",
"4 	c #737D85",
"5 	c #9DA3A9",
"6 	c #CBCFD4",
"7 	c #727A87",
"8 	c #7F8891",
"9 	c #717884",
"0 	c #7B838A",
"a 	c #EAECEF",
"b 	c #DDE0E2",
"c 	c #757D86",
"d 	c #858D95",
"e 	c #828990",
"f 	c #657179",
"g 	c #717B84",
"h 	c #6C767E",
"i 	c #757D87",
"j 	c #6E787D",
"k 	c #939A9F",
"l 	c #EDEFF0",
"m 	c #7D868D",
"n 	c #717881",
"o 	c #69777A",
"p 	c #989FA5",
"q 	c #A0A7AC",
"r 	c #AAB0B5",
"s 	c #7F878D",
"t 	c #6F787F",
"u 	c #6A727C",
"v 	c #879096",
"w 	c #F7F7F7",
"x 	c #8E969D",
"y 	c #B6BBBF",
"z 	c #C2C5C9",
"A 	c #6D757B",
"B 	c #6B737B",
"C 	c #6B747C",
"D 	c #6F7980",
"E 	c #717880",
"F 	c #E5E6E7",
"G 	c #FCFEFE",
"H 	c #828A90",
"I 	c #999EA4",
"J 	c #F4F4F5",
"K 	c #BFC3C5",
"L 	c #677077",
"M 	c #656E76",
"N 	c #687179",
"O 	c #646E75",
"P 	c #8E959C",
"Q 	c #8F969D",
"R 	c #636C74",
"S 	c #CBD0D2",
"T 	c #AFB4B8",
"U 	c #616A71",
"V 	c #747D83",
"W 	c #6E777D",
"X 	c #697378",
"Y 	c #626C72",
"Z 	c #636D73",
"` 	c #656F75",
" .	c #616A70",
"..	c #E3E6E8",
"+.	c #B0B5B8",
"@.	c #5F6970",
"#.	c #8E969C",
"$.	c #747D81",
"%.	c #566065",
"&.	c #5E686E",
"*.	c #5D676D",
"=.	c #606A6F",
"-.	c #5F696F",
";.	c #606A70",
">.	c #636D72",
",.	c #8D969B",
"'.	c #CCD0D1",
").	c #656E75",
"!.	c #5F6A70",
"~.	c #727B7E",
"{.	c #BCC1C4",
"].	c #C5C9CB",
"^.	c #5C656B",
"/.	c #5D666C",
"(.	c #5C666C",
"_.	c #5A6469",
":.	c #59636A",
"<.	c #828A91",
"[.	c #ECEDEF",
"}.	c #6A747A",
"|.	c #6F747A",
"1.	c #E8EBEC",
"2.	c #F2F2F4",
"3.	c #767C82",
"4.	c #586066",
"5.	c #5A6268",
"6.	c #576066",
"7.	c #5C666D",
"8.	c #626B72",
"9.	c #626D73",
"0.	c #646D74",
"a.	c #EAEBEC",
"b.	c #ECEDF0",
"c.	c #677076",
"d.	c #51575C",
"e.	c #8A9095",
"f.	c #A8ADB0",
"g.	c #9BA0A3",
"h.	c #71777B",
"i.	c #535B60",
"j.	c #585F65",
"k.	c #585F64",
"l.	c #5C6368",
"m.	c #565C61",
"n.	c #5A6369",
"o.	c #626C73",
"p.	c #5D666D",
"q.	c #596268",
"r.	c #80888C",
"s.	c #8C9297",
"t.	c #555D64",
"u.	c #949A9F",
"v.	c #464E54",
"w.	c #525A5F",
"x.	c #4C535A",
"y.	c #4C545B",
"z.	c #4D555B",
"A.	c #51595F",
"B.	c #545C62",
"C.	c #545B61",
"D.	c #51595E",
"E.	c #586167",
"F.	c #5B636A",
"G.	c #D7DADB",
"H.	c #BEC2C4",
"I.	c #72797E",
"J.	c #888F92",
"K.	c #8E9497",
"L.	c #596065",
"M.	c #4E585C",
"N.	c #50595D",
"O.	c #50585D",
"P.	c #535D62",
"Q.	c #4D555A",
"R.	c #555D62",
"S.	c #5C6469",
"T.	c #586065",
"U.	c #6F767A",
"V.	c #FEFEFE",
"W.	c #E2E4E5",
"X.	c #5F696E",
"Y.	c #4F585E",
"Z.	c #989D9F",
"`.	c #989EA0",
" +	c #4B5358",
".+	c #4C5559",
"++	c #525B5F",
"@+	c #485256",
"#+	c #565E63",
"$+	c #575F65",
"%+	c #DBDDDF",
"&+	c #6E7679",
"*+	c #5C6668",
"=+	c #B4B7B8",
"-+	c #ADB0B3",
";+	c #878E90",
">+	c #474E53",
",+	c #495155",
"'+	c #495156",
")+	c #4A5156",
"!+	c #485055",
"~+	c #444C50",
"{+	c #434B4F",
"]+	c #474F54",
"^+	c #4A5256",
"/+	c #4F585D",
"(+	c #545D63",
"_+	c #525B60",
":+	c #6C7377",
"<+	c #4A5359",
"[+	c #AFB4B6",
"}+	c #D9DBDC",
"|+	c #3D4448",
"1+	c #424A4E",
"2+	c #3F474A",
"3+	c #40484B",
"4+	c #41494C",
"5+	c #474D51",
"6+	c #474D52",
"7+	c #434A4D",
"8+	c #4C5357",
"9+	c #5E6569",
"0+	c #787D82",
"a+	c #A0A5A7",
"b+	c #777E81",
"c+	c #444A4F",
"d+	c #4F575C",
"e+	c #4B5459",
"f+	c #737A7D",
"g+	c #D4D6D7",
"h+	c #4E565B",
"i+	c #767E82",
"j+	c #788081",
"k+	c #595E62",
"l+	c #858C8E",
"m+	c #919597",
"n+	c #646C6F",
"o+	c #41494B",
"p+	c #444C4E",
"q+	c #434B4D",
"r+	c #474E51",
"s+	c #909496",
"t+	c #C4C7C8",
"u+	c #DFE0E1",
"v+	c #7A8083",
"w+	c #3F4649",
"x+	c #464D50",
"y+	c #414A4B",
"z+	c #BABDBE",
"A+	c #6D7377",
"B+	c #454D51",
"C+	c #5C6365",
"D+	c #E2E4E6",
"E+	c #CCCFD0",
"F+	c #4C5356",
"G+	c #707678",
"H+	c #EFF0F0",
"I+	c #F7F9F9",
"J+	c #5B6164",
"K+	c #3E4649",
"L+	c #3F4549",
"M+	c #464C52",
"N+	c #495257",
"O+	c #949A9C",
"P+	c #9FA5A8",
"Q+	c #3A4246",
"R+	c #353E3E",
"S+	c #6B7174",
"T+	c #8B9092",
"U+	c #797D81",
"V+	c #494F53",
"W+	c #3C4246",
"X+	c #3E4448",
"Y+	c #394144",
"Z+	c #31393C",
"`+	c #50575A",
" @	c #D6D9D9",
".@	c #E0E1E2",
"+@	c #454C4F",
"@@	c #3C4446",
"#@	c #454C51",
"$@	c #484F55",
"%@	c #464D52",
"&@	c #52595D",
"*@	c #50575C",
"=@	c #5D6569",
"-@	c #F9FAFA",
";@	c #818688",
">@	c #394143",
",@	c #373E40",
"'@	c #353C3F",
")@	c #3A4143",
"!@	c #3C4245",
"~@	c #3B4245",
"{@	c #3D4446",
"]@	c #41484A",
"^@	c #52585B",
"/@	c #6D7274",
"(@	c #8F9395",
"_@	c #B5B7BA",
":@	c #959A9B",
"<@	c #B8BBBC",
"[@	c #C1C3C4",
"}@	c #373F41",
"|@	c #3E4548",
"1@	c #3A3F42",
"2@	c #41494A",
"3@	c #474F53",
"4@	c #A7ACAE",
"5@	c #929899",
"6@	c #414A4C",
"7@	c #7D8486",
"8@	c #8D9394",
"9@	c #CED0D0",
"0@	c #B3B6B7",
"a@	c #454C4E",
"b@	c #363D40",
"c@	c #384042",
"d@	c #2F3638",
"e@	c #656B6C",
"f@	c #DBDDDD",
"g@	c #F9F9F9",
"h@	c #7F8587",
"i@	c #323A3D",
"j@	c #ADB0B1",
"k@	c #9A9D9E",
"l@	c #31393B",
"m@	c #394244",
"n@	c #353D3F",
"o@	c #3F484B",
"p@	c #444D4F",
"q@	c #40494B",
"r@	c #4D5557",
"s@	c #F1F1F2",
"t@	c #D1D3D4",
"u@	c #454E50",
"v@	c #3A4043",
"w@	c #707778",
"x@	c #E2E4E4",
"y@	c #D9DADA",
"z@	c #626869",
"A@	c #31383A",
"B@	c #333A3C",
"C@	c #484F51",
"D@	c #6F7476",
"E@	c #74797B",
"F@	c #62696A",
"G@	c #2E3538",
"H@	c #444B4C",
"I@	c #343B3D",
"J@	c #363D3F",
"K@	c #33383A",
"L@	c #3D4547",
"M@	c #434B4E",
"N@	c #3E4549",
"O@	c #BDC0C2",
"P@	c #5A6266",
"Q@	c #272E30",
"R@	c #323A3B",
"S@	c #32393A",
"T@	c #2D3335",
"U@	c #8D9293",
"V@	c #A5A8A9",
"W@	c #303738",
"X@	c #4D5455",
"Y@	c #D7D9DA",
"Z@	c #F6F7F6",
"`@	c #4A5152",
" #	c #323839",
".#	c #313738",
"+#	c #394345",
"@#	c #7B8284",
"##	c #C0C2C3",
"$#	c #4F5455",
"%#	c #798081",
"&#	c #797F7F",
"*#	c #394041",
"=#	c #2D3435",
"-#	c #2F3637",
";#	c #2E3536",
">#	c #323A3A",
",#	c #8A8F8F",
"'#	c #CFD1D2",
")#	c #42494A",
"!#	c #333A3B",
"~#	c #B6BABA",
"{#	c #E6E7E7",
"]#	c #383F40",
"^#	c #2E3436",
"/#	c #313839",
"(#	c #2C3334",
"_#	c #444C4F",
":#	c #4D5454",
"<#	c #E2E5E5",
"[#	c #878A8B",
"}#	c #2B3233",
"|#	c #2D3334",
"1#	c #2B3333",
"2#	c #262D2E",
"3#	c #5E6465",
"4#	c #EAEBEB",
"5#	c #F4F5F5",
"6#	c #2C3333",
"7#	c #676C6D",
"8#	c #2F3738",
"9#	c #2A3131",
"0#	c #3F4647",
"a#	c #3F4546",
"b#	c #282F2F",
"c#	c #293031",
"d#	c #293132",
"e#	c #293131",
"f#	c #232A2B",
"g#	c #3C4243",
"h#	c #BEC1C1",
"i#	c #6D7373",
"j#	c #202728",
"k#	c #272E2E",
"l#	c #1E2424",
"m#	c #252A2B",
"n#	c #282E2E",
"o#	c #272D2E",
"p#	c #282D2E",
"q#	c #24292A",
"r#	c #2A2F30",
"s#	c #737878",
"t#	c #3D4242",
"u#	c #252B2C",
"v#	c #292F2F",
"w#	c #252B2B",
"x#	c #222828",
"y#	c #252C2C",
"z#	c #252A2A",
"A#	c #242A2A",
"B#	c #23292A",
"C#	c #1E2425",
"D#	c #222829",
"E#	c #222525",
"F#	c #1B2222",
"G#	c #1D2424",
"H#	c #212828",
"I#	c #212727",
"J#	c #212626",
"K#	c #1C2323",
"L#	c #222626",
"M#	c #1A2222",
"N#	c #1B2020",
"O#	c #1F2524",
"P#	c #1C2222",
"Q#	c #4B5155",
"R#	c #8E949B",
"S#	c #454A4D",
"T#	c #191E1F",
"U#	c #1B2122",
"V#	c #191E1E",
"W#	c #6F747B",
"X#	c #A4ABB6",
"Y#	c #999EAA",
"Z#	c #9CA4AD",
"`#	c #A1A7B2",
" $	c #747A80",
".$	c #292F31",
"+$	c #151A1A",
"@$	c #181D1E",
"#$	c #191F1F",
"$$	c #292F30",
"%$	c #848A92",
"&$	c #A3AAB3",
"*$	c #99A2AB",
"=$	c #9AA0A7",
"-$	c #9A9FAA",
";$	c #9AA1AA",
">$	c #9BA2AC",
",$	c #9EA5AE",
"'$	c #A3ABB4",
")$	c #959CA5",
"!$	c #171D1C",
"~$	c #111716",
"{$	c #121817",
"]$	c #8E959E",
"^$	c #A2AAB2",
"/$	c #9DA4AD",
"($	c #9AA2AA",
"_$	c #979FA7",
":$	c #999FAA",
"<$	c #99A1AA",
"[$	c #9BA2AB",
"}$	c #9FA6AF",
"|$	c #80878D",
"1$	c #60686C",
"2$	c #6E757A",
"3$	c #A0A7B0",
"4$	c #9EA5AF",
"5$	c #9AA1A9",
"6$	c #98A0AA",
"7$	c #99A0AA",
"8$	c #9AA1AB",
"9$	c #A1A7B1",
"0$	c #A3ABB5",
"a$	c #9FA5AF",
"b$	c #99A0AB",
"c$	c #99A0A9",
"d$	c #98A1AA",
"e$	c #9BA0AA",
"f$	c #96A1A9",
"g$	c #9BA1AA",
"h$	c #99A2AA",
"i$	c #9BA2AA",
"j$	c #989FA7",
"k$	c #9CA0AA",
"l$	c #99A1A8",
"m$	c #9B9EAA",
"                                                                                                ",
"                                              . +                                               ",
"                                              @ # $ %                                           ",
"                                            & * = - ;                                           ",
"                                          > , * ' ) !                                           ",
"                                          ~ { * ] ^                                             ",
"                                        / ^ ( * _ :                                             ",
"                                        < [ } * |             1                                 ",
"                                      2 3 4 5 6             7 8 9                               ",
"                                    0 a b c d e           f g h i j                             ",
"                                    k * l m n           o p q r s t                             ",
"                                  u v w * x             y * * z A B C                           ",
"                                  D E F G H           I J l K L M L N O                         ",
"                                P Q R S T           U V W X Y Y Z Z Z `  .                      ",
"                              N ..+.@.#.$.        %.&.*.=.-.=.;.;.;.;.=.>.&.                    ",
"                              ,.* '.).!.        ~.{.].+. .^././././././.(.-._.                  ",
"                            :.<.* [.}.        |.1.* 2.3.4.5.5.5.5.5.5.5.5.5./.6.                ",
"                    7.8.Z 9.U 0.a.b.c.      d.e.f.g.h.i.j.k.k.k.k.k.k.k.k.k.k.l.m.              ",
"                  n.o.p.q.r.s.t.].u.      v.w.x.y.z.A.B.C.C.C.C.C.C.C.C.C.C.C.C.4.D.            ",
"                  E.F.q.^.G.H.B.I.        3.J.K.L.M.N.N.N.N.N.N.N.N.N.N.N.N.N.N.O.P.Q.          ",
"                R.S.T.R.U.V.W.X.Y.      Z.* * `. +.+Q.Q.Q.Q.Q.Q.Q.Q.Q.Q.Q.Q.Q.Q.Q.Q.++@+        ",
"                k.#+R.w.$+%+* &+      *+=+-+;+>+,+'+)+'+!+>+~+{+]+^+'+'+'+'+'+'+'+'+.+v.        ",
"              /+(+_+w.:+<+[+}+      |+1+2+3+4+5+6+5+4+7+8+9+0+a+b+7+6+6+6+6+6+6+6+5+^+c+        ",
"              _+d+e+f+g+h+i+j+    k+l+m+n+o+p+p+q+r+s+t+u+w * * v+w+p+p+p+p+p+p+p+x+y+          ",
"            ^+h+.+]+z+* A+B+    C+D+* E+F+2+o+o+o+2+G+H+* * * I+J+K+o+o+o+o+o+o+p+L+            ",
"          M+z.N+!+1+O+* P+Q+  R+S+T+U+V+W+w+L+X+W+Y+Z+`+ @* * .@+@X+w+w+w+w+w+o+@@              ",
"          #@$@%@&@*@=@-@;@    >@>@,@'@)@!@~@{@]@^@/@(@_@:@<@* [@}@~@~@~@~@!@|@1@                ",
"        2@3@+@3+4@5@6@7@    8@9@0@a@b@c@b@d@e@f@g@* * * h@i@j@k@l@}@}@}@c@m@n@                  ",
"        o@p@q@r@s@t@u@v@  w@x@y@z@A@'@B@C@D@l@E@J * * * F@G@,@H@I@'@'@J@J@K@                    ",
"          L@M@N@O@* P@  Q@,@,@R@d@S@S@T@U@* V@W@X@Y@* Z@`@d@ #.#S@S@B@W@                        ",
"            +#n@@###  $#%#&#*#=#-#-#-#;#>#,#* '#)#!#~#{#]#^#-#-#-#/#(#                          ",
"                _#r+:#<#* [#}#|#|#|#|#|#1#2#3#4#5#z@6#7#8#|#|#|#;#9#                            ",
"                    0#X@a#b#c#d#d#d#d#d#d#e#f#g#h#* i#j#c#d#d#1#k#                              ",
"                      l#m#n#o#o#o#o#o#o#o#o#p#q#r#s#t#u#o#p#v#w#                                ",
"                          x#y#z#A#A#A#A#A#A#A#A#B#C#D#A#z#m#E#                                  ",
"                            F#G#H#I#I#I#I#I#I#I#I#I#I#J#K#L#                                    ",
"                                M#N#l#l#l#l#l#l#l#O#P#I#Q#                                      ",
"                                R#S#F#T#U#U#U#U#U#V#m#W#X#                                      ",
"                              Y#Z#`# $.$+$@$#$T#+$$$%$&$*$=$                                    ",
"                            -$;$>$,$'$)$V+!$~${$S@]$^$/$,$($_$                                  ",
"                            :$<$[$,$/$}$^$|$1$2$($3$/$/$4$<$5$                                  ",
"                            6$7$8$,$,$/$/$9$0$^$,$/$,$a$8$<$b$                                  ",
"                              Y#c$;$d$Z#/$}$}$4$4$,$[$;$e$f$                                    ",
"                                  d$g$h$[$8$7$;$i$5$;$-$j$                                      ",
"                                    k$  l$:$  ;$  e$                                            ",
"                                      l$  f$  m$                                                ",
"                                                                                                ",
"                                                                                                "};
