<?xml version="1.0" encoding="utf-8"?>
<!-- Generator: Adobe Illustrator 13.0.0, SVG Export Plug-In . SVG Version: 6.00 Build 14948)  -->
<!DOCTYPE svg PUBLIC "-//W3C//DTD SVG 1.1//EN" "http://www.w3.org/Graphics/SVG/1.1/DTD/svg11.dtd">
<svg version="1.1" id="Layer_1" xmlns="http://www.w3.org/2000/svg" xmlns:xlink="http://www.w3.org/1999/xlink" x="0px" y="0px"
	 width="92px" height="59px" viewBox="354.5 271.5 92 59" enable-background="new 354.5 271.5 92 59" xml:space="preserve">
<g>
	<g>
		<path fill="#4C4A4A" d="M421.281,289.298c4.464-10.326,16.854-4.969,12.393,5.357c-4.465,10.328-3.35,7.746-8.037,18.588
			c-4.688,10.842-16.631,4.452-12.392-5.356C417.486,298.075,416.816,299.625,421.281,289.298"/>
	</g>
	<g>
		<path fill="#231F20" d="M418.655,319.398c-3.612-0.008-6.804-3.099-6.81-7.467l0,0c0-1.318,0.289-2.752,0.938-4.244l0,0
			c4.241-9.812,3.569-8.261,8.037-18.589l0,0l-0.002-0.001c1.736-4.042,4.748-5.872,7.582-5.866l0,0
			c3.543,0.006,6.715,2.852,6.721,7.182l0,0c0.002,1.356-0.306,2.849-0.992,4.439l0,0c-4.465,10.328-3.351,7.746-8.036,18.589l0,0
			c-1.771,4.123-4.671,5.957-7.426,5.957l0,0C418.665,319.398,418.66,319.398,418.655,319.398L418.655,319.398z M421.738,289.495
			c-4.464,10.328-3.794,8.777-8.035,18.589l0,0c-0.601,1.379-0.856,2.676-0.856,3.848l0,0c0.007,3.873,2.783,6.467,5.81,6.469l0,0
			c2.298-0.006,4.832-1.479,6.521-5.354l0,0c4.688-10.844,3.573-8.262,8.035-18.587l0,0c0.64-1.482,0.912-2.839,0.912-4.044l0,0
			c-0.012-3.821-2.719-6.17-5.722-6.183l0,0c-2.396,0.006-5.026,1.501-6.662,5.265l0,0l-0.459-0.197L421.738,289.495
			L421.738,289.495z"/>
	</g>
	<g>
		<path fill="#4C4A4A" d="M368.335,294.517c-4.322-10.387,8.142-15.574,12.464-5.188c4.322,10.387,3.242,7.792,7.78,18.696
			c4.538,10.906-8.358,15.056-12.464,5.187C372.009,303.346,372.657,304.902,368.335,294.517"/>
	</g>
	<g>
		<path fill="#231F20" d="M375.653,313.402c-4.106-9.865-3.457-8.31-7.779-18.694l0,0l0.46-0.191l0.463-0.193
			c4.323,10.387,3.673,8.828,7.779,18.695l0,0c1.551,3.709,4.315,5.267,6.832,5.271l0,0c2.972-0.019,5.605-2.142,5.622-5.937l0,0
			c0-1.209-0.271-2.594-0.912-4.137l0,0c-4.539-10.905-3.459-8.31-7.78-18.697l0,0c-1.604-3.827-4.252-5.351-6.669-5.357l0,0
			c-3.002,0.013-5.721,2.361-5.73,6.217l0,0c0,1.176,0.257,2.5,0.859,3.944l0,0l-0.463,0.193l-0.46,0.191
			c-0.646-1.55-0.938-3.006-0.938-4.329l0,0c0.008-4.364,3.191-7.21,6.732-7.216l0,0c2.86-0.006,5.891,1.861,7.592,5.972l0,0
			c4.321,10.387,3.241,7.792,7.779,18.697l0,0c0.685,1.646,0.989,3.163,0.991,4.521l0,0c-0.008,4.312-3.156,6.931-6.624,6.938l0,0
			c-0.005,0-0.01,0-0.016,0l0,0C380.457,319.291,377.314,317.417,375.653,313.402L375.653,313.402z"/>
	</g>
	<g>
		<path d="M360.458,307.458c0-13.5,13.5-13.5,40.5-13.5s40.5,0,40.5,13.5s-22.5,13.5-40.5,13.5S360.458,320.958,360.458,307.458"/>
	</g>
	<g>
		<path d="M363.632,316.046c-2.589-2.034-4.19-4.93-4.174-8.589l0,0c-0.006-3.53,0.9-6.357,2.784-8.469l0,0
			c1.879-2.111,4.617-3.444,8.098-4.313l0,0c6.971-1.734,17.111-1.711,30.617-1.718l0,0c10.127,0,18.37-0.002,24.792,0.718l0,0
			c6.405,0.73,11.085,2.148,13.924,5.312l0,0c1.884,2.111,2.79,4.938,2.784,8.469l0,0c0.017,3.659-1.586,6.556-4.175,8.589l0,0
			c-2.585,2.045-6.095,3.337-10.116,4.202l0,0c-8.04,1.719-18.204,1.707-27.209,1.709l0,0
			C387.431,321.909,371.383,322.085,363.632,316.046L363.632,316.046z M437.038,314.479c2.192-1.763,3.403-3.933,3.419-7.021l0,0
			c-0.006-3.218-0.786-5.453-2.278-7.14l0,0c-1.496-1.687-3.819-2.885-7.09-3.703l0,0c-6.528-1.641-16.638-1.662-30.132-1.658l0,0
			c-10.124,0-18.332,0.004-24.568,0.706l0,0c-6.25,0.693-10.429,2.124-12.652,4.655l0,0c-1.492,1.687-2.272,3.921-2.279,7.14l0,0
			c0.017,3.09,1.226,5.26,3.419,7.021l0,0c2.196,1.752,5.438,2.99,9.291,3.812l0,0c7.709,1.658,17.796,1.668,26.791,1.666l0,0
			C414.431,320.006,430.444,319.829,437.038,314.479L437.038,314.479z"/>
	</g>
	<g>
		<path fill="#666666" d="M360.458,307.458c0-13.5,13.5-13.5,40.5-13.5s40.5,0,40.5,13.5s-22.5,13.5-40.5,13.5
			S360.458,320.958,360.458,307.458"/>
	</g>
	<g>
		<path fill="#807F7F" d="M400.958,293.958c-14.633,0-25.292,0.005-31.994,2.154c-0.682,0.698-1.346,1.465-2.006,2.346
			c-5,7,4,13,8,14c20,5,40,2,60-3c2.226-0.444,4.448-1.09,6.496-2.106C441.381,293.961,427.884,293.958,400.958,293.958"/>
	</g>
	<g>
		<path fill="#FFFFFF" d="M401.045,293.958c-4.971,0-4.971-18,0-18C405.545,275.958,406.016,293.958,401.045,293.958"/>
	</g>
	<g>
		<path fill="#231F20" d="M397.777,291.317c-0.649-1.77-0.96-4.063-0.962-6.36l0,0c0.002-2.297,0.312-4.588,0.962-6.36l0,0
			c0.641-1.741,1.671-3.117,3.268-3.14l0,0c1.551,0.042,2.49,1.478,3.113,3.278l0,0c0.624,1.834,0.937,4.207,0.938,6.558l0,0
			c-0.003,2.235-0.284,4.444-0.897,6.146l0,0c-0.603,1.675-1.6,3-3.154,3.018l0,0v-0.499v-0.5c0.863,0.019,1.645-0.795,2.213-2.359
			l0,0c0.559-1.533,0.84-3.657,0.84-5.806l0,0c0-2.26-0.311-4.553-0.886-6.234l0,0c-0.576-1.716-1.413-2.641-2.167-2.602l0,0
			c-0.893-0.021-1.727,0.853-2.328,2.486l0,0c-0.594,1.603-0.901,3.812-0.899,6.014l0,0c-0.002,2.204,0.307,4.411,0.899,6.016l0,0
			c0.603,1.632,1.437,2.507,2.328,2.485l0,0v0.5v0.499C399.448,294.434,398.418,293.06,397.777,291.317L397.777,291.317z"/>
	</g>
	<g>
		<path fill="#FFFFFF" d="M418.958,302.958c0,12.426-8.06,22.5-18,22.5s-18-10.074-18-22.5s8.06-22.5,18-22.5
			S418.958,290.532,418.958,302.958"/>
	</g>
	<g>
		<path fill="#231F20" d="M381.957,302.959c0.019-12.822,8.323-23.456,19-23.501l0,0c10.677,0.045,18.98,10.679,19.001,23.501l0,0
			c-0.021,12.818-8.324,23.454-19.001,23.5l0,0C390.28,326.413,381.976,315.777,381.957,302.959L381.957,302.959z M389.01,287.673
			c-3.103,3.878-5.053,9.288-5.053,15.286l0,0c0,5.995,1.95,11.406,5.053,15.283l0,0c3.11,3.882,7.326,6.214,11.947,6.214l0,0
			c4.622,0,8.836-2.332,11.946-6.214l0,0c3.104-3.877,5.055-9.288,5.053-15.283l0,0c0.002-5.999-1.948-11.408-5.053-15.286l0,0
			c-3.11-3.882-7.324-6.215-11.946-6.215l0,0C396.336,281.458,392.12,283.791,389.01,287.673L389.01,287.673z"/>
	</g>
	<g>
		<path fill="#E4E2E2" d="M418.958,302.958c0,12.426-8.06,22.5-18,22.5s-18-10.074-18-22.5s8.06-22.5,18-22.5
			S418.958,290.532,418.958,302.958"/>
	</g>
	<g>
		<path fill="#CBC9C9" d="M390.958,289.458c-0.649-3.254,1.24-5.238,3.19-7.329c-6.564,3.356-11.19,11.415-11.19,20.829
			c0,12.426,8.06,22.5,18,22.5s18-10.074,18-22.5c0-5.471-1.562-10.483-4.16-14.383C407.27,284.618,399.113,283.341,390.958,289.458
			"/>
	</g>
	<g>
		<path fill="#231F20" d="M414.458,289.458c0,4.5-4.5,4.5-4.5,0s-18-4.5-18,0s-4.5,4.5-4.5,0s-4.5,0-4.5,4.5v13.5
			c0,4.5,4.5,18,18,18s18-13.5,18-18v-13.5C418.958,289.458,414.458,284.958,414.458,289.458"/>
	</g>
	<g>
		<path fill="#231F20" d="M382.458,307.458v-13.5c0.002-1.711,0.594-3.375,1.362-4.637l0,0c0.795-1.247,1.662-2.173,2.706-2.229l0,0
			c0.447-0.012,0.896,0.274,1.109,0.697l0,0c0.228,0.423,0.32,0.96,0.322,1.668l0,0c0.021,2.103,0.995,2.873,1.75,2.875l0,0
			c0.754-0.002,1.729-0.771,1.75-2.875l0,0c0.037-1.517,1.423-2.423,3.154-3.005l0,0c1.765-0.588,4.053-0.869,6.346-0.871l0,0
			c2.293,0.002,4.58,0.283,6.345,0.871l0,0c1.731,0.582,3.118,1.488,3.155,3.005l0,0c0.021,2.103,0.995,2.873,1.75,2.875l0,0
			c0.753-0.002,1.729-0.771,1.75-2.875l0,0c0.002-0.708,0.095-1.245,0.322-1.668l0,0c0.212-0.423,0.662-0.709,1.109-0.697l0,0
			c1.044,0.056,1.911,0.982,2.705,2.229l0,0c0.767,1.265,1.36,2.926,1.362,4.637l0,0v13.5c-0.004,4.692-4.59,18.444-18.5,18.5l0,0
			C387.047,325.902,382.461,312.15,382.458,307.458L382.458,307.458z M384.674,289.841c-0.687,1.123-1.22,2.644-1.218,4.117l0,0
			v13.5c-0.006,2.106,1.098,6.565,3.845,10.396l0,0c2.754,3.846,7.083,7.099,13.656,7.104l0,0
			c6.573-0.006,10.901-3.259,13.656-7.104l0,0c2.747-3.83,3.852-8.289,3.845-10.396l0,0l-0.002-13.5
			c0.004-1.474-0.528-2.993-1.216-4.117l0,0c-0.66-1.139-1.578-1.804-1.852-1.748l0,0c-0.1,0.012-0.117-0.002-0.232,0.177l0,0
			c-0.103,0.18-0.202,0.576-0.2,1.187l0,0c-0.002,2.396-1.255,3.867-2.749,3.875l0,0c-1.496-0.008-2.747-1.479-2.751-3.875l0,0
			c0.037-0.733-0.825-1.513-2.471-2.058l0,0c-1.609-0.539-3.822-0.819-6.028-0.817l0,0c-2.208-0.002-4.421,0.281-6.03,0.817l0,0
			c-1.645,0.544-2.506,1.325-2.471,2.058l0,0c-0.002,2.396-1.255,3.867-2.749,3.875l0,0c-1.496-0.008-2.747-1.479-2.749-3.875l0,0
			c0.002-0.611-0.097-1.005-0.2-1.187l0,0c-0.116-0.179-0.134-0.165-0.232-0.177l0,0c-0.012-0.002-0.022-0.003-0.035-0.003l0,0
			C386.182,288.09,385.309,288.747,384.674,289.841L384.674,289.841z"/>
	</g>
	<g>
		<path fill="#4C4A4A" d="M408.792,310.499c0,1.267-1.026,2.293-2.292,2.293s-2.292-1.026-2.292-2.293V291.5
			c0-1.266,1.026-2.292,2.292-2.292s2.292,1.026,2.292,2.292V310.499z"/>
	</g>
	<g>
		<path fill="#231F20" d="M403.706,310.5l0.002-19.001c0-1.542,1.249-2.791,2.791-2.791l0,0c1.542,0,2.791,1.249,2.793,2.791l0,0
			V310.5h-0.002c0,1.541-1.249,2.791-2.791,2.791l0,0C404.957,313.291,403.708,312.041,403.706,310.5L403.706,310.5z
			 M404.708,291.499l-0.003,19.001c0.003,0.989,0.805,1.789,1.794,1.791l0,0c0.989-0.002,1.791-0.803,1.793-1.791l0,0h-0.002
			l0.002-19.001c-0.002-0.989-0.804-1.789-1.793-1.791l0,0C405.51,289.71,404.708,290.51,404.708,291.499L404.708,291.499z"/>
	</g>
	<g>
		<path fill="#808080" d="M370.689,285.761c1.11-1.168,4.614-1.595,5.968,0.184c1.353,1.779-0.239,1.902-1.195,1.166
			c-0.954-0.737-2.068-1.288-3.579-0.614C370.371,287.171,369.814,286.681,370.689,285.761"/>
	</g>
	<g>
		<path fill="#808080" d="M425.355,285.761c1.108-1.168,4.614-1.595,5.969,0.184c1.352,1.779-0.24,1.902-1.195,1.166
			c-0.955-0.737-2.068-1.288-3.58-0.614C425.037,287.171,424.479,286.681,425.355,285.761"/>
	</g>
</g>
</svg>
