<?xml version="1.0" encoding="utf-8"?>
<!-- Generator: Adobe Illustrator 13.0.0, SVG Export Plug-In . SVG Version: 6.00 Build 14948)  -->
<!DOCTYPE svg PUBLIC "-//W3C//DTD SVG 1.1//EN" "http://www.w3.org/Graphics/SVG/1.1/DTD/svg11.dtd">
<svg version="1.1" id="Layer_1" xmlns="http://www.w3.org/2000/svg" xmlns:xlink="http://www.w3.org/1999/xlink" x="0px" y="0px"
	 width="74px" height="56px" viewBox="363.5 270.5 74 56" enable-background="new 363.5 270.5 74 56" xml:space="preserve">
<g>
	<g>
		<path fill="#4C4A4A" d="M385.293,298.275c3.16,9.107,2.945,17.188-0.476,18.047c-3.423,0.859-8.758-5.826-11.915-14.934
			c-3.159-9.108,0.476-18.047,0.476-18.047S382.136,289.168,385.293,298.275"/>
	</g>
	<g>
		<path fill="#231F20" d="M377.984,312.411c-2.066-2.734-4.054-6.526-5.556-10.856l0,0c-0.979-2.824-1.318-5.624-1.318-8.152l0,0
			c0.002-5.82,1.792-10.213,1.804-10.248l0,0l0.229-0.568l0.511,0.339c0.033,0.033,8.867,5.876,12.108,15.186l0,0l-0.473,0.163
			l-0.472,0.165c-1.541-4.45-4.473-8.131-7.023-10.692l0,0c-1.79-1.798-3.378-3.036-4.168-3.615l0,0
			c-0.462,1.36-1.52,4.901-1.518,9.271l0,0c0,2.44,0.329,5.127,1.263,7.822l0,0c1.471,4.244,3.423,7.957,5.409,10.584l0,0
			c1.976,2.639,4.025,4.119,5.417,4.088l0,0c0.173,0,0.338-0.021,0.494-0.062l0,0c1.376-0.282,2.348-2.465,2.333-5.968l0,0
			c0.002-3.119-0.726-7.16-2.206-11.429l0,0l0.472-0.165l0.473-0.163c1.512,4.36,2.263,8.487,2.265,11.756l0,0
			c-0.016,3.595-0.872,6.315-3.09,6.938l0,0c-0.241,0.061-0.488,0.09-0.739,0.09l0,0
			C382.171,316.863,380.06,315.129,377.984,312.411L377.984,312.411z"/>
	</g>
	<g>
		<path fill="#4C4A4A" d="M429.075,301.633c-3.653,8.973-9.35,15.438-12.722,14.444c-3.371-0.995-3.14-9.073,0.515-18.046
			c3.655-8.972,12.722-14.444,12.722-14.444S432.729,292.661,429.075,301.633"/>
	</g>
	<g>
		<path fill="#231F20" d="M416.212,316.557c-1.979-0.629-2.736-2.959-2.744-6l0,0c0.002-3.42,0.993-7.941,2.938-12.714l0,0
			c3.75-9.169,12.893-14.654,12.925-14.683l0,0l0.528-0.321l0.204,0.583c0.011,0.035,1.277,3.707,1.279,8.724l0,0
			c0,2.918-0.432,6.298-1.804,9.674l0,0l-0.463-0.188l0.463,0.188c-3.495,8.425-8.521,14.734-12.465,14.854l0,0
			C416.777,316.677,416.487,316.639,416.212,316.557L416.212,316.557z M424.938,287.813c-2.69,2.457-5.822,6.021-7.605,10.406l0,0
			c-1.906,4.674-2.866,9.107-2.862,12.338l0,0c-0.008,2.938,0.81,4.727,2.025,5.041l0,0c0.178,0.051,0.372,0.077,0.579,0.077l0,0
			c2.894,0.122,8.223-5.937,11.539-14.231l0,0c1.311-3.227,1.729-6.477,1.729-9.297l0,0c0-3.654-0.693-6.564-1.038-7.78l0,0
			C428.485,284.913,426.827,286.084,424.938,287.813L424.938,287.813z"/>
	</g>
	<g>
		<path d="M425,299.202c0.948-9.092,1.262-22.484-23.6-3.676c-24.084-18.726-24.442-5.29-23.784,3.766
			c-1.869,1.026-2.827,2.799-2.827,5.801c0,9.429,12.801,21.286,26.289,12.622c14.005,8.997,26.632-3.193,26.632-12.622
			C427.71,301.998,426.816,300.212,425,299.202"/>
	</g>
	<g>
		<path d="M401.077,318.893c-3.266,1.974-6.53,2.834-9.595,2.834l0,0c-10.01-0.064-17.637-8.877-17.694-16.633l0,0
			c-0.038-2.908,0.932-5.087,2.788-6.343l0,0c-0.067-1.022-0.116-2.094-0.116-3.17l0,0c0.006-2.469,0.24-4.954,1.208-6.977l0,0
			c0.935-2.03,2.882-3.548,5.648-3.507l0,0c3.941,0.033,9.488,2.588,18.092,9.173l0,0c8.907-6.644,14.54-9.213,18.473-9.247l0,0
			c2.506-0.037,4.342,1.243,5.25,3.042l0,0c0.932,1.784,1.17,3.986,1.177,6.238l0,0c0,1.473-0.112,2.972-0.25,4.378l0,0
			c1.808,1.265,2.688,3.458,2.652,6.415l0,0c-0.052,7.715-7.535,16.705-17.688,16.77l0,0
			C407.869,321.865,404.489,320.965,401.077,318.893L401.077,318.893z M401.618,316.873c3.313,2.127,6.483,2.988,9.401,2.99l0,0
			c4.449,0,8.375-2.027,11.198-4.922l0,0c2.83-2.887,4.499-6.635,4.49-9.849l0,0c-0.039-2.942-0.754-4.184-2.195-5.019l0,0
			l0.485-0.873l0.995,0.101l-0.995-0.101l-0.485,0.873l-0.577-0.321l0.068-0.657c0.161-1.553,0.302-3.217,0.302-4.795l0,0
			c0.007-2.097-0.267-4.036-0.946-5.304l0,0c-0.705-1.255-1.581-1.939-3.479-1.977l0,0c-3.081-0.035-8.777,2.386-17.877,9.3l0,0
			l-0.612,0.463l-0.604-0.471c-8.783-6.854-14.372-9.253-17.47-9.218l0,0c-2.089,0.04-3.07,0.866-3.849,2.38l0,0
			c-0.746,1.522-1.015,3.775-1.009,6.104l0,0c0,1.222,0.068,2.462,0.155,3.639l0,0l0.046,0.639l-0.562,0.31
			c-1.518,0.873-2.269,2.105-2.308,4.926l0,0c-0.01,3.217,1.688,6.928,4.534,9.781l0,0c2.843,2.857,6.773,4.852,11.159,4.85l0,0
			c2.842-0.003,5.896-0.828,9.055-2.852l0,0l0.54-0.348L401.618,316.873L401.618,316.873z"/>
	</g>
	<g>
		<path fill="#666666" d="M425,299.202c0.948-9.092,1.262-22.484-23.6-3.676c-24.084-18.726-24.442-5.29-23.784,3.766
			c-1.869,1.026-2.827,2.799-2.827,5.801c0,9.429,12.801,21.286,26.289,12.622c14.005,8.997,26.632-3.193,26.632-12.622
			C427.71,301.998,426.816,300.212,425,299.202"/>
	</g>
	<g>
		<path fill="#807F7F" d="M417.5,310.834c3.309-0.302,6.521-1.062,9.648-2.156c0.366-1.207,0.562-2.416,0.562-3.586
			c0-3.094-0.894-4.88-2.71-5.89c0.948-9.092,1.262-22.484-23.6-3.676c-19.871-15.449-23.587-9.005-23.912-1.192
			C385.066,307.027,403.08,312.529,417.5,310.834"/>
	</g>
	<g>
		<path d="M371.167,305.516c0-9.847,10.111-9.847,30.333-9.847s30.334,0,30.334,9.847c0,9.848-16.853,9.848-30.334,9.848
			S371.167,315.361,371.167,305.516"/>
	</g>
	<g>
		<path d="M373.399,311.998c-1.99-1.514-3.25-3.729-3.233-6.482l0,0c-0.008-2.623,0.695-4.772,2.158-6.368l0,0
			c1.458-1.593,3.558-2.578,6.188-3.221l0,0c5.271-1.272,12.869-1.253,22.987-1.258l0,0c7.584,0,13.763-0.004,18.594,0.525l0,0
			c4.815,0.538,8.374,1.566,10.581,3.954l0,0c1.465,1.594,2.166,3.745,2.159,6.368l0,0c0.017,2.756-1.245,4.969-3.233,6.482l0,0
			c-1.984,1.529-4.644,2.477-7.675,3.111l0,0c-6.061,1.26-13.682,1.25-20.426,1.252l0,0
			C391.359,316.312,379.343,316.486,373.399,311.998L373.399,311.998z M428.378,310.416c1.594-1.256,2.438-2.732,2.456-4.9l0,0
			c-0.009-2.301-0.571-3.844-1.635-5.019l0,0c-1.069-1.175-2.762-2.038-5.187-2.625l0,0c-4.841-1.188-12.41-1.208-22.514-1.202l0,0
			c-7.582-0.002-13.729,0.002-18.376,0.513l0,0c-4.665,0.5-7.741,1.549-9.324,3.314l0,0c-1.064,1.175-1.626,2.718-1.634,5.019l0,0
			c0.016,2.168,0.862,3.646,2.455,4.9l0,0c1.595,1.241,3.993,2.141,6.859,2.736l0,0c5.736,1.199,13.281,1.213,20.02,1.209l0,0
			C411.583,314.408,423.579,314.236,428.378,310.416L428.378,310.416z"/>
	</g>
	<g>
		<path fill="#666666" d="M371.167,305.516c0-9.847,10.111-9.847,30.333-9.847s30.334,0,30.334,9.847
			c0,9.848-16.853,9.848-30.334,9.848S371.167,315.361,371.167,305.516"/>
	</g>
	<g>
		<path fill="#807F7F" d="M401.5,295.669c-10.96,0-18.943,0.004-23.963,1.571c-0.51,0.508-1.008,1.069-1.502,1.711
			c-3.745,5.105,2.996,9.482,5.992,10.211c14.979,3.646,29.957,1.459,44.938-2.188c1.667-0.324,3.332-0.795,4.866-1.537
			C431.775,295.671,421.667,295.669,401.5,295.669"/>
	</g>
	<g>
		<path fill="#FFFFFF" d="M401.583,292.652c-4.737,0-4.737-17.152,0-17.152C405.871,275.5,406.318,292.652,401.583,292.652"/>
	</g>
	<g>
		<path fill="#231F20" d="M398.447,290.143c-0.62-1.69-0.917-3.878-0.919-6.068l0,0c0.002-2.191,0.299-4.377,0.919-6.07l0,0
			c0.609-1.662,1.596-2.983,3.135-3.006l0,0c1.496,0.041,2.396,1.422,2.989,3.138l0,0c0.596,1.752,0.895,4.015,0.896,6.256l0,0
			c-0.002,2.134-0.271,4.239-0.856,5.866l0,0c-0.575,1.598-1.527,2.874-3.028,2.893l0,0v-0.499v-0.501
			c0.808,0.019,1.546-0.746,2.088-2.233l0,0c0.528-1.458,0.798-3.48,0.796-5.525l0,0c0.002-2.151-0.293-4.334-0.841-5.932l0,0
			c-0.549-1.633-1.343-2.501-2.043-2.462l0,0c-0.833-0.022-1.623,0.8-2.196,2.353l0,0c-0.564,1.524-0.858,3.625-0.856,5.724l0,0
			c-0.002,2.097,0.295,4.198,0.856,5.724l0,0c0.573,1.553,1.363,2.375,2.196,2.353l0,0v0.501v0.499
			C400.046,293.129,399.06,291.807,398.447,290.143L398.447,290.143z"/>
	</g>
	<g>
		<path fill="#FFFFFF" d="M418.651,301.229c0,11.84-7.68,16.486-17.151,16.486s-17.151-4.646-17.151-16.486
			c0-11.841,7.68-21.439,17.151-21.439S418.651,289.387,418.651,301.229"/>
	</g>
	<g>
		<path fill="#231F20" d="M388.723,314.672c-3.354-2.844-5.387-7.318-5.376-13.443l0,0c0.02-12.237,7.943-22.396,18.152-22.44l0,0
			c10.209,0.045,18.134,10.203,18.152,22.44l0,0c0.011,6.125-2.021,10.601-5.376,13.443l0,0c-3.351,2.846-7.885,4.041-12.776,4.041
			l0,0C396.606,318.713,392.07,317.518,388.723,314.672L388.723,314.672z M390.152,286.692c-2.952,3.685-4.808,8.832-4.806,14.537
			l0,0c0.012,5.711,1.817,9.481,4.672,11.922l0,0c2.858,2.437,6.898,3.563,11.479,3.563l0,0c4.581,0,8.621-1.128,11.479-3.563l0,0
			c2.854-2.439,4.661-6.211,4.673-11.922l0,0c0.002-5.705-1.854-10.852-4.805-14.537l0,0c-2.958-3.689-6.961-5.903-11.348-5.905l0,0
			C397.112,280.789,393.109,283.003,390.152,286.692L390.152,286.692z"/>
	</g>
	<g>
		<path fill="#E4E2E2" d="M418.651,301.229c0,11.84-7.68,16.486-17.151,16.486s-17.151-4.646-17.151-16.486
			c0-11.841,7.68-21.439,17.151-21.439S418.651,289.387,418.651,301.229"/>
	</g>
	<g>
		<path fill="#CBC9C9" d="M391.971,288.364c-0.619-3.101,1.184-4.991,3.041-6.984c-6.256,3.198-10.664,10.878-10.664,19.849
			c0,11.84,7.681,16.486,17.152,16.486s17.151-4.646,17.151-16.486c0-5.213-1.488-9.99-3.964-13.707
			C407.514,283.753,399.743,282.535,391.971,288.364"/>
	</g>
	<g>
		<path d="M400.992,289.583c0.092,5.666,0,23,0,27.833c0,2.834-32.826-0.916-19.975-26.5c0.648,5.25,4.205,2.334,4.205-0.666
			C385.224,278.75,400.843,280.25,400.992,289.583"/>
	</g>
	<g>
		<path fill="#231F20" d="M385.639,315.084c-4.401-2.602-8.112-6.889-8.106-13.295l0,0c0.002-3.18,0.909-6.858,3.04-11.097l0,0
			l0.74-1.474l0.203,1.636c0.267,2.057,0.911,2.488,1.268,2.458l0,0c0.316,0.015,0.839-0.301,1.244-0.894l0,0
			c0.41-0.583,0.698-1.391,0.694-2.168l0,0c-0.002-2.929,0.986-5.121,2.515-6.554l0,0c1.524-1.434,3.551-2.098,5.579-2.098l0,0
			c4.201-0.015,8.587,2.891,8.676,7.975l0,0l-0.499,0.008l-0.5,0.008c-0.068-4.437-3.881-6.976-7.677-6.99l0,0
			c-3.63,0.037-7.062,2.265-7.093,7.65l0,0c-0.047,2.003-1.288,3.967-2.939,4.062l0,0c-0.883-0.021-1.557-0.654-1.95-1.85l0,0
			c-1.621,3.57-2.3,6.662-2.3,9.326l0,0c0.006,5.993,3.399,9.921,7.617,12.434l0,0c4.206,2.502,9.225,3.497,12.154,3.492l0,0
			c1.032,0.01,1.819-0.14,2.103-0.299l0,0c0.045-0.021,0.069-0.037,0.085-0.048l0,0c0-3.267,0.039-11.989,0.039-19.125l0,0
			c0-3.586-0.009-6.77-0.039-8.651l0,0l0.5-0.008l0.499-0.008c0.031,1.896,0.039,5.08,0.041,8.668l0,0
			c-0.002,7.173-0.041,15.953-0.041,19.173l0,0c-0.041,0.664-0.583,0.916-1.086,1.069l0,0c-0.544,0.156-1.249,0.229-2.101,0.23l0,0
			C395.17,318.713,390.053,317.695,385.639,315.084L385.639,315.084z"/>
	</g>
	<g>
		<path d="M401.242,289.583c-0.091,5.666,0,23,0,27.833c0,2.834,32.826-0.916,19.975-26.5c-0.647,5.25-4.205,2.334-4.205-0.666
			C417.012,278.75,401.393,280.25,401.242,289.583"/>
	</g>
	<g>
		<path fill="#231F20" d="M401.827,318.484c-0.503-0.152-1.044-0.404-1.087-1.068l0,0c0.002-3.223-0.04-12-0.04-19.174l0,0
			c0-3.588,0.009-6.772,0.042-8.667l0,0c0.084-5.084,4.47-7.99,8.674-7.975l0,0c2.029,0,4.055,0.665,5.581,2.097l0,0
			c1.527,1.433,2.518,3.627,2.514,6.554l0,0c-0.002,0.779,0.285,1.585,0.692,2.168l0,0c0.407,0.595,0.928,0.909,1.246,0.895l0,0
			c0.356,0.029,1.002-0.401,1.271-2.459l0,0l0.205-1.629l0.737,1.467c2.129,4.239,3.034,7.917,3.036,11.099l0,0
			c0.006,6.405-3.705,10.692-8.107,13.292l0,0c-4.414,2.611-9.531,3.629-12.662,3.634l0,0
			C403.075,318.715,402.37,318.645,401.827,318.484L401.827,318.484z M401.742,317.363c0.045,0.039,0.172,0.107,0.365,0.162l0,0
			c0.391,0.115,1.028,0.192,1.82,0.189l0,0c2.926,0.006,7.944-0.99,12.151-3.492l0,0c4.217-2.516,7.611-6.441,7.616-12.433l0,0
			c0.002-2.666-0.678-5.76-2.296-9.33l0,0c-0.395,1.196-1.066,1.829-1.951,1.852l0,0c-1.653-0.097-2.893-2.061-2.938-4.063l0,0
			c-0.028-5.386-3.464-7.612-7.095-7.651l0,0c-3.797,0.015-7.609,2.554-7.676,6.991l0,0c-0.029,1.883-0.042,5.068-0.042,8.651l0,0
			c0,7.131,0.041,15.85,0.042,19.119l0,0C401.741,317.361,401.741,317.361,401.742,317.363L401.742,317.363z"/>
	</g>
	<g>
		<path fill="#727273" d="M415.048,292.377c2.077,2.248,1.077,4.248-0.923,4.248c-3-1-1-5-2.658-7.207
			c-0.134-0.259-0.287-0.497-0.457-0.718c-0.852-1.107-2.133-1.804-3.639-2.685c-0.162-0.175-0.273-0.373-0.32-0.601
			c-0.046-0.229-0.024-0.489,0.074-0.789c0.191-0.382,0.49-0.655,0.871-0.829c0.188-0.086,0.4-0.148,0.625-0.188
			c3.003-0.655,5.337,1.349,6.223,3.933c0.111,0.323,0.199,0.656,0.267,0.994c0.016,1.09,0.016,2.09-0.043,3.055
			C415.068,291.86,415.061,292.123,415.048,292.377"/>
	</g>
	<g>
		<path fill="#727273" d="M399.273,291.838C398.5,292.5,397.5,294.5,396.5,293.5c0-3,0-5-2.601-5.792
			c-0.188-0.15-0.384-0.294-0.589-0.435c-0.615-0.423-1.312-0.818-2.064-1.258c-0.162-0.175-0.273-0.373-0.32-0.601
			c-0.047-0.229-0.024-0.489,0.074-0.789c0.191-0.382,0.491-0.655,0.871-0.829c0.188-0.086,0.398-0.148,0.625-0.187
			c1.502-0.328,2.836,0.009,3.905,0.75c0.267,0.186,0.519,0.397,0.752,0.629c1.347,1.512,3.347,3.512,2.252,6.377
			C399.371,291.545,399.326,291.702,399.273,291.838"/>
	</g>
</g>
</svg>
