/* XPM */
static char * celtx16_xpm[] = {
"16 16 83 1",
" 	c None",
".	c #C6CCCD",
"+	c #9FA5AD",
"@	c #C3C8CE",
"#	c #BDC1C5",
"$	c #8F979E",
"%	c #858D94",
"&	c #A9AFB4",
"*	c #969CA0",
"=	c #7F878D",
"-	c #606971",
";	c #AFB4B8",
">	c #848B8F",
",	c #A3AAAC",
"'	c #656D73",
")	c #586066",
"!	c #5E686E",
"~	c #586067",
"{	c #535961",
"]	c #91979D",
"^	c #868D92",
"/	c #868D90",
"(	c #5B656A",
"_	c #4A5257",
":	c #4C555A",
"<	c #51595E",
"[	c #555D62",
"}	c #4F565C",
"|	c #5F686D",
"1	c #8C9295",
"2	c #6F7678",
"3	c #656C70",
"4	c #4A5256",
"5	c #808689",
"6	c #7B8184",
"7	c #454C50",
"8	c #474F53",
"9	c #495256",
"0	c #80878A",
"a	c #8B9194",
"b	c #666A6D",
"c	c #676F71",
"d	c #3D4447",
"e	c #696E71",
"f	c #D9DBDC",
"g	c #A0A5A6",
"h	c #384043",
"i	c #3C4346",
"j	c #575E61",
"k	c #888D8F",
"l	c #5E6466",
"m	c #616769",
"n	c #384041",
"o	c #7D8384",
"p	c #D5D6D6",
"q	c #7C8283",
"r	c #3F4548",
"s	c #313839",
"t	c #686D6D",
"u	c #595F60",
"v	c #282F2F",
"w	c #2C3333",
"x	c #64696A",
"y	c #7F8485",
"z	c #384040",
"A	c #262C2D",
"B	c #1F2424",
"C	c #202626",
"D	c #272D2D",
"E	c #202828",
"F	c #7E858D",
"G	c #3F4649",
"H	c #171D1C",
"I	c #3D4345",
"J	c #8C939C",
"K	c #9DA5AE",
"L	c #9FA6AF",
"M	c #80878E",
"N	c #9CA3AC",
"O	c #9DA4AD",
"P	c #9BA5AA",
"Q	c #A0AAB2",
"R	c #9BA0AB",
"                ",
"       .+       ",
"       @        ",
"      #$  %     ",
"      &  *=-    ",
"     ;> ,')!~   ",
"   {]^ /(_:<[}  ",
"   |1 23456789  ",
"  70abcdefghi   ",
"  jklmnopqrs    ",
"   tuvwxyzA     ",
"     BCCDE      ",
"     FGHIJ      ",
"     KLMNO      ",
"      PQR       ",
"                "};
